# Blender v2.81 (sub 16) OBJ File: 'Tavern level.blend'
# www.blender.org
mtllib Tavern floor.mtl
o Plane.006_Plane.010
v -2.965167 -0.000000 16.387451
v 13.534906 0.000000 16.387451
v 13.534905 0.000000 -1.989389
v -2.965167 -0.000000 -1.916350
v 13.534905 -0.250000 -1.989389
v 13.534906 -0.250000 16.387451
v -2.965167 -0.250000 16.387451
v -2.965167 -0.250000 -1.916350
vt 1.000000 1.000000
vt 1.000000 1.000000
vt 1.000000 1.000000
vt 1.000000 1.000000
vt 0.000000 0.000000
vt 0.000000 0.000000
vt 0.000000 0.000000
vt 0.000000 0.000000
vn -1.0000 0.0000 0.0000
vn 1.0000 0.0000 -0.0000
vn 0.0000 0.0000 1.0000
vn 0.0000 -1.0000 0.0000
vn -0.0044 0.0000 -1.0000
vn -0.0000 1.0000 0.0000
usemtl None
s off
f 1/1/1 4/2/1 8/3/1 7/4/1
f 3/5/2 2/6/2 6/7/2 5/8/2
f 2/6/3 1/1/3 7/4/3 6/7/3
f 7/4/4 8/3/4 5/8/4 6/7/4
f 4/2/5 3/5/5 5/8/5 8/3/5
f 1/1/6 2/6/6 3/5/6 4/2/6
