# Blender v2.81 (sub 16) OBJ File: 'Tavern level.blend'
# www.blender.org
mtllib Tavern bar.mtl
o Plane.001_Plane.002
v 5.955926 0.000000 10.573224
v 5.955926 1.100000 10.573224
v 6.955926 0.000000 10.573224
v 6.955926 1.100000 10.573224
v 5.955926 0.000000 5.548170
v 5.955926 1.100000 5.548170
v 6.955926 0.000000 5.548170
v 6.955926 1.100000 5.548170
v 6.004870 0.000000 5.239153
v 6.004869 1.100000 5.239153
v 6.955926 0.000000 5.548170
v 6.955926 1.100000 5.548170
v 6.146910 0.000000 4.960384
v 6.146910 1.100000 4.960384
v 6.955927 0.000000 5.548170
v 6.955927 1.100000 5.548170
v 6.368142 -0.000000 4.739153
v 6.368142 1.100000 4.739153
v 6.955927 -0.000000 5.548170
v 6.955927 1.100000 5.548170
v 6.646911 -0.000000 4.597114
v 6.646911 1.100000 4.597114
v 6.955927 -0.000000 5.548170
v 6.955927 1.100000 5.548170
v 6.955928 -0.000000 4.548171
v 6.955928 1.100000 4.548170
v 6.955928 -0.000000 5.548171
v 6.955928 1.100000 5.548171
v 8.270715 -0.000000 4.548171
v 8.270715 1.100000 4.548170
v 8.270715 -0.000000 5.548171
v 8.270715 1.100000 5.548171
v 6.004870 0.000000 10.882241
v 6.004870 1.100000 10.882241
v 6.955927 0.000000 10.573224
v 6.955927 1.100000 10.573224
v 6.146911 0.000000 11.161009
v 6.146911 1.100000 11.161009
v 6.955928 0.000000 10.573224
v 6.955928 1.100000 10.573224
v 6.368144 0.000000 11.382240
v 6.368144 1.100000 11.382240
v 6.955929 0.000000 10.573223
v 6.955929 1.100000 10.573223
v 6.646913 0.000000 11.524279
v 6.646913 1.100000 11.524279
v 6.955929 0.000000 10.573222
v 6.955929 1.100000 10.573222
v 6.955930 0.000000 11.573221
v 6.955930 1.100000 11.573221
v 6.955930 0.000000 10.573221
v 6.955930 1.100000 10.573221
vt 0.375000 0.500000
vt 0.625000 0.500000
vt 0.625000 0.750000
vt 0.375000 0.750000
vt 0.125000 0.750000
vt 0.375000 0.750000
vt 0.125000 0.750000
vt 0.125000 0.500000
vt 0.875000 0.500000
vt 0.875000 0.750000
vt 0.375000 0.000000
vt 0.625000 0.000000
vt 0.625000 0.250000
vt 0.375000 0.250000
vt 0.625000 0.250000
vt 0.375000 0.250000
vt 0.125000 0.500000
vt 0.375000 0.500000
vt 0.625000 0.500000
vt 0.875000 0.500000
vt 0.625000 0.250000
vt 0.375000 0.250000
vt 0.125000 0.500000
vt 0.375000 0.500000
vt 0.625000 0.500000
vt 0.875000 0.500000
vt 0.375000 0.500000
vt 0.625000 0.500000
vt 0.875000 0.500000
vt 0.625000 0.250000
vt 0.375000 0.250000
vt 0.125000 0.500000
vt 0.625000 0.250000
vt 0.375000 0.250000
vt 0.125000 0.500000
vt 0.375000 0.500000
vt 0.625000 0.500000
vt 0.875000 0.500000
vt 0.125000 0.500000
vt 0.375000 0.500000
vt 0.625000 0.500000
vt 0.875000 0.500000
vt 0.625000 0.250000
vt 0.375000 0.250000
vt 0.375000 0.500000
vt 0.625000 0.500000
vt 0.875000 0.500000
vt 0.625000 0.250000
vt 0.375000 0.250000
vt 0.125000 0.500000
vt 0.625000 0.750000
vt 0.875000 0.750000
vt 0.875000 0.750000
vt 0.625000 0.750000
vt 0.375000 0.000000
vt 0.625000 0.000000
vt 0.125000 0.750000
vt 0.375000 0.750000
vt 0.375000 0.750000
vt 0.125000 0.750000
vt 0.375000 0.000000
vt 0.625000 0.000000
vt 0.625000 0.000000
vt 0.375000 0.000000
vt 0.375000 0.000000
vt 0.625000 0.000000
vt 0.875000 0.750000
vt 0.625000 0.750000
vt 0.625000 0.750000
vt 0.875000 0.750000
vt 0.875000 0.750000
vt 0.625000 0.750000
vt 0.375000 0.750000
vt 0.125000 0.750000
vt 0.375000 0.750000
vt 0.625000 1.000000
vt 0.375000 1.000000
vt 0.125000 0.750000
vt 0.375000 0.000000
vt 0.625000 0.000000
vn 1.0000 0.0000 0.0000
vn 0.0000 -1.0000 0.0000
vn 0.0000 1.0000 0.0000
vn -1.0000 0.0000 0.0000
vn -0.9877 -0.0000 -0.1564
vn 0.9389 0.0000 0.3443
vn -0.8910 0.0000 -0.4540
vn 0.0000 0.0000 1.0000
vn -0.7071 0.0000 -0.7071
vn -0.4540 0.0000 -0.8910
vn -0.1564 -0.0000 -0.9877
vn 0.0000 -0.0000 -1.0000
vn -0.9877 0.0000 0.1564
vn -0.8910 0.0000 0.4540
vn -0.4540 0.0000 0.8910
vn -0.7071 0.0000 0.7071
vn -0.6727 0.0000 -0.7399
vn -0.8762 0.0000 -0.4819
vn -0.1564 0.0000 0.9877
usemtl Material.002
s off
f 7/1/1 8/2/1 4/3/1 3/4/1
f 1/5/2 3/4/2 35/6/2 33/7/2
f 5/8/2 7/1/2 3/4/2 1/5/2
f 8/2/3 6/9/3 2/10/3 4/3/3
f 1/11/4 2/12/4 6/13/4 5/14/4
f 5/14/5 6/13/5 10/15/5 9/16/5
f 7/1/2 5/8/2 9/17/2 11/18/2
f 8/2/6 7/1/6 11/18/6 12/19/6
f 6/9/3 8/2/3 12/19/3 10/20/3
f 9/16/7 10/15/7 14/21/7 13/22/7
f 11/18/2 9/17/2 13/23/2 15/24/2
f 12/19/8 11/18/8 15/24/8 16/25/8
f 10/20/3 12/19/3 16/25/3 14/26/3
f 16/25/8 15/24/8 19/27/8 20/28/8
f 14/26/3 16/25/3 20/28/3 18/29/3
f 13/22/9 14/21/9 18/30/9 17/31/9
f 15/24/2 13/23/2 17/32/2 19/27/2
f 17/31/10 18/30/10 22/33/10 21/34/10
f 19/27/2 17/32/2 21/35/2 23/36/2
f 20/28/4 19/27/4 23/36/4 24/37/4
f 18/29/3 20/28/3 24/37/3 22/38/3
f 23/36/2 21/35/2 25/39/2 27/40/2
f 24/37/8 23/36/8 27/40/8 28/41/8
f 22/38/3 24/37/3 28/41/3 26/42/3
f 21/34/11 22/33/11 26/43/11 25/44/11
f 28/41/8 27/40/8 31/45/8 32/46/8
f 26/42/3 28/41/3 32/46/3 30/47/3
f 25/44/12 26/43/12 30/48/12 29/49/12
f 27/40/2 25/39/2 29/50/2 31/45/2
f 36/51/3 34/52/3 38/53/3 40/54/3
f 4/3/3 2/10/3 34/52/3 36/51/3
f 3/4/12 4/3/12 36/51/12 35/6/12
f 2/12/13 1/11/13 33/55/13 34/56/13
f 37/57/2 39/58/2 43/59/2 41/60/2
f 35/6/12 36/51/12 40/54/12 39/58/12
f 33/7/2 35/6/2 39/58/2 37/57/2
f 34/56/14 33/55/14 37/61/14 38/62/14
f 42/63/15 41/64/15 45/65/15 46/66/15
f 38/62/16 37/61/16 41/64/16 42/63/16
f 40/54/3 38/53/3 42/67/3 44/68/3
f 39/58/17 40/54/17 44/68/17 43/59/17
f 48/69/3 46/70/3 50/71/3 52/72/3
f 44/68/3 42/67/3 46/70/3 48/69/3
f 43/59/18 44/68/18 48/69/18 47/73/18
f 41/60/2 43/59/2 47/73/2 45/74/2
f 51/75/1 52/72/1 50/76/1 49/77/1
f 47/73/18 48/69/18 52/72/18 51/75/18
f 45/74/2 47/73/2 51/75/2 49/78/2
f 46/66/19 45/65/19 49/79/19 50/80/19
